/* XPM */
static char *_42cd33bd3ab460793ebb099c33d61eb47VHKPzh36NuSRjk[] = {
/* columns rows colors chars-per-pixel */
"32 32 11 1 ",
"  c None",
". c #23101D",
"X c #3A2032",
"o c #542833",
"O c #623436",
"+ c #8B4335",
"@ c #B95027",
"# c #D1690A",
"$ c #FFA200",
"% c #E08650",
"& c #F4FF9B",
/* pixels */
"                                ",
"                                ",
"                                ",
"       ooooooooooooooooo        ",
"      o%#%%%%#%#%#######o       ",
"     o#@@@@@@@@@@@@@@@@@#o      ",
"     o#@o.............o@#o      ",
"     o#@.ooo+++++ooo+o.@#o      ",
"     o#@.o@o++@@+oo++o.@#o      ",
"     o#@.+@o+@##@o++++.@#o      ",
"     o@@.+@+@###@+@@++.@@o      ",
"     o@@.X#+@###@o#@@+.@@o      ",
"     .@@.&X+@###@+##@+.@@.      ",
"     .@@.$$X@###@@##@+.@@.      ",
"     .+@.#X+@###@+##@+.@+.      ",
"     .+@.X#+@###@+##OO.@+.      ",
"     .++.+#+@@#@@+#O&$.++.      ",
"     .++.+@+@@@@@+@O&$.++.      ",
"     .++.+@+@@@@@+@X##.++.      ",
"     .o+.+@+@@@@@@@@XX.+o.      ",
"     .o+.+++@@@@@@@@@+.+o.      ",
"     .oo.X@o@@@@@@@@@+.oo.      ",
"     .oo.&X+@@@@@@@@@+.oo.      ",
"     .oo.$$X@@@@@@+@++.oo.      ",
"     .oo.#Xo+@@@@+o+++.oo.      ",
"     .oo.X+o++@@++o++o.oo.      ",
"     .oo.o+oo++++oo+oo.oo.      ",
"     .oo...............oo.      ",
"     .o.               .o.      ",
"      .                 .       ",
"                                ",
"                                "
};
