/* XPM */
static char *_42cd33bd3ab460793ebb099c33d61eb47VHKPzh36NuSRjk[] = {
/* columns rows colors chars-per-pixel */
"16 16 11 1 ",
"  c #14A02E",
". c #23101D",
"X c #3A2032",
"o c #542833",
"O c #623436",
"+ c #8B4335",
"@ c #B95027",
"# c #D1690A",
"$ c #FFA200",
"% c #E08650",
"& c #F4FF9B",
/* pixels */
"    oooooooo    ",
"   o#%%%%###o   ",
"   #o......o#   ",
"   #.@+@+o+.#   ",
"   @.@@#@@+.@   ",
"   @.X@#@#@.@   ",
"   +.X@#@#@.+   ",
"   +.#@#@#&.+   ",
"   +.@@@@@#.+   ",
"   o.+@@@@@.o   ",
"   o.X@@@@@.o   ",
"   o.$@@@++.o   ",
"   o.X+@@o+.o   ",
"   o.++@+o+.o   ",
"   o.+o++oo.o   ",
"   o........o   ",
"   .        .   "
};
