/* XPM */
static char *_dcd70a92b4b459bd106ea7c0485cc6bmzXDVWsuCCF0ekCi[] = {
/* columns rows colors chars-per-pixel */
"16 16 8 1 ",
"  c #14A02E",
". c #213038",
"X c #437DA0",
"o c #9A2890",
"O c #4D92BC",
"+ c #D8B78F",
"@ c #FFD7A8",
"# c white",
/* pixels */
"  ...........   ",
" ..XXX.OOOOOO.  ",
".o.X#.#XOOOOOO. ",
".o.X#.#XO.OOO.. ",
"...X#.#XOOOOOO. ",
" .o.XXXXOOOOOO. ",
" .o.XXXXOOOOOO. ",
" ...XXXXXO..... ",
"   ..XXOOOO.    ",
"    .X+@@@@.    ",
"  ...X+@@@@.    ",
"  .OOX+@@@@.    ",
"  ..XXXO++O.    ",
"   ..XOOOOO.    ",
"    .XO..XO.    ",
"    .X. .X.     ",

};
